<?xml version="1.0" standalone="no"?>
<!DOCTYPE svg PUBLIC "-//W3C//DTD SVG 20010904//EN"
 "http://www.w3.org/TR/2001/REC-SVG-20010904/DTD/svg10.dtd">
<svg version="1.0" xmlns="http://www.w3.org/2000/svg"
 width="240.000000pt" height="240.000000pt" viewBox="0 0 240.000000 240.000000"
 preserveAspectRatio="xMidYMid meet">

<g transform="translate(0.000000,240.000000) scale(0.100000,-0.100000)"
fill="#000000" stroke="none">
<path d="M435 1871 c-70 -17 -105 -63 -105 -136 0 -40 5 -52 34 -81 l34 -34
355 0 355 0 43 56 c50 65 129 128 214 172 l60 31 -480 -1 c-264 0 -493 -3
-510 -7z"/>
<path d="M1680 1869 c-97 -11 -240 -53 -304 -87 -69 -37 -169 -133 -210 -201
-19 -31 -45 -88 -59 -128 -50 -138 -59 -221 -64 -592 l-5 -343 90 3 c73 3 96
8 119 25 51 38 53 49 53 337 0 204 4 286 16 344 42 205 123 312 274 363 53 18
97 23 240 28 l175 5 31 31 c41 41 51 95 27 143 -33 66 -58 77 -191 79 -64 2
-151 -2 -192 -7z"/>
<path d="M642 1230 c-69 -31 -89 -109 -45 -176 29 -45 70 -54 232 -54 l151 0
0 73 c0 39 3 96 6 125 l7 52 -154 0 c-131 0 -160 -3 -197 -20z"/>
<path d="M1482 1216 c-34 -32 -37 -39 -37 -90 0 -49 4 -59 31 -86 17 -17 48
-35 70 -40 54 -13 186 -12 240 1 111 28 137 171 42 229 -29 17 -50 20 -171 20
l-137 0 -38 -34z"/>
</g>
</svg>
